<svg width="120" height="31" viewBox="0 0 120 31" fill="none" xmlns="http://www.w3.org/2000/svg" color="white" class="header-logo" style="opacity: 1; transform: translate(0px, 0px); color: white;">
    <path d="M47.7494 26.7994C47.3523 26.8021 46.9684 26.9422 46.663 27.196C46.3575 27.4497 46.1494 27.8014 46.074 28.1913C45.9986 28.5812 46.0605 28.9851 46.2493 29.3345C46.438 29.6838 46.742 29.957 47.1094 30.1076C47.4768 30.2582 47.8851 30.2768 48.2647 30.1604C48.6444 30.044 48.972 29.7997 49.1919 29.469C49.4117 29.1384 49.5103 28.7418 49.4708 28.3466C49.4312 27.9515 49.2561 27.5823 48.9751 27.3017C48.8157 27.139 48.6248 27.0105 48.4141 26.9241C48.2033 26.8377 47.9771 26.7953 47.7494 26.7994Z" fill="currentColor" />
    <path d="M42.4147 27.3029C42.1734 27.5451 42.0093 27.8534 41.9431 28.1889C41.8769 28.5243 41.9116 28.8719 42.0428 29.1877C42.1739 29.5034 42.3957 29.7733 42.6801 29.9631C42.9645 30.1529 43.2988 30.2542 43.6407 30.2542C43.9826 30.2542 44.3169 30.1529 44.6013 29.9631C44.8857 29.7733 45.1074 29.5034 45.2386 29.1877C45.3698 28.8719 45.4045 28.5243 45.3383 28.1889C45.2721 27.8534 45.108 27.5451 44.8667 27.3029C44.5395 26.9816 44.0993 26.8015 43.6407 26.8015C43.1821 26.8015 42.7419 26.9816 42.4147 27.3029Z" fill="currentColor" />
    <path d="M53.5142 24.0542C53.8357 24.0542 54.1441 23.9265 54.3716 23.6993C54.5991 23.472 54.727 23.1637 54.7273 22.8422V5.40282C54.7204 5.08573 54.5896 4.78393 54.3629 4.56211C54.1362 4.34028 53.8317 4.21607 53.5145 4.21607C53.1973 4.21607 52.8928 4.34028 52.6661 4.56211C52.4394 4.78393 52.3086 5.08573 52.3017 5.40282V22.8422C52.302 23.1636 52.4298 23.4718 52.6572 23.6991C52.8845 23.9263 53.1928 24.054 53.5142 24.0542Z" fill="currentColor" />
    <path d="M55.1311 27.7261H53.3223V27.6001C53.3073 27.2904 53.38 26.9827 53.532 26.7123C53.6224 26.6088 53.7374 26.5295 53.8664 26.482C53.9954 26.4345 54.1343 26.4201 54.2703 26.4403C54.4112 26.4448 54.5513 26.465 54.6878 26.5004C54.8948 26.5536 55.0925 26.6378 55.2743 26.7502L55.5607 26.9151L55.7772 26.2788C55.8647 26.0182 55.848 25.7338 55.7306 25.4853C55.6131 25.2367 55.4041 25.0432 55.1472 24.9454C54.6612 24.7579 54.133 24.7076 53.6203 24.8001C53.1077 24.8925 52.6303 25.124 52.2404 25.4694C51.7658 26.1125 51.5429 26.9071 51.6138 27.7032V27.8178L51.5479 27.8304C51.3463 27.8661 51.1654 27.9761 51.0409 28.1386C50.9164 28.3012 50.8572 28.5044 50.8751 28.7084C50.893 28.9124 50.9867 29.1022 51.1376 29.2406C51.2885 29.3789 51.4858 29.4557 51.6905 29.4559H55.1323C55.3624 29.4559 55.5831 29.3644 55.7458 29.2017C55.9086 29.039 56 28.8183 56 28.5881C56 28.358 55.9086 28.1373 55.7458 27.9746C55.5831 27.8118 55.3624 27.7204 55.1323 27.7204L55.1311 27.7261Z" fill="currentColor" />
    <path d="M49.4299 21.9098V15.2554C49.4299 14.9346 49.3024 14.6269 49.0756 14.4001C48.8487 14.1732 48.541 14.0458 48.2202 14.0458C47.8994 14.0458 47.5917 14.1732 47.3648 14.4001C47.138 14.6269 47.0105 14.9346 47.0105 15.2554V21.6388H37.9987C36.647 21.6388 36.0187 20.8513 36.0187 19.1616V15.256C36.0118 14.9397 35.8813 14.6386 35.6552 14.4173C35.429 14.196 35.1252 14.0721 34.8087 14.0721C34.4923 14.0721 34.1885 14.196 33.9623 14.4173C33.7362 14.6386 33.6057 14.9397 33.5988 15.256V19.1605C33.5988 20.8501 32.9688 21.6377 31.6176 21.6377C30.2665 21.6377 29.6387 20.8501 29.6387 19.1605V16.3305C29.6387 16.0072 29.5103 15.6972 29.2818 15.4687C29.0532 15.2401 28.7432 15.1117 28.4199 15.1117C28.0966 15.1117 27.7866 15.2401 27.5581 15.4687C27.3295 15.6972 27.2011 16.0072 27.2011 16.3305V19.1605C27.2011 20.8501 26.571 21.6377 25.221 21.6377C23.9157 21.6377 23.2868 20.9229 23.241 19.3999V16.3299C23.2445 16.1688 23.2158 16.0086 23.1566 15.8588C23.0973 15.7089 23.0088 15.5724 22.8961 15.4572C22.7834 15.342 22.6488 15.2505 22.5003 15.188C22.3517 15.1255 22.1922 15.0934 22.031 15.0934C21.8699 15.0934 21.7104 15.1255 21.5618 15.188C21.4133 15.2505 21.2787 15.342 21.166 15.4572C21.0533 15.5724 20.9648 15.7089 20.9055 15.8588C20.8463 16.0086 20.8176 16.1688 20.8211 16.3299V19.1605C20.8211 20.8501 20.1911 21.6377 18.8411 21.6377H10.811V5.39595C10.811 5.07512 10.6835 4.76744 10.4567 4.54058C10.2298 4.31373 9.92213 4.18628 9.6013 4.18628C9.28048 4.18628 8.9728 4.31373 8.74594 4.54058C8.51908 4.76744 8.39164 5.07512 8.39164 5.39595V21.9098C8.39224 22.4793 8.61883 23.0252 9.02164 23.4278C9.42445 23.8304 9.97056 24.0567 10.5401 24.057H18.8399C19.4263 24.0941 20.0137 24.0037 20.5618 23.792C21.1098 23.5803 21.6055 23.2524 22.0147 22.8307C22.8923 23.6203 24.0311 24.0572 25.2116 24.0572C26.3921 24.0572 27.5308 23.6203 28.4084 22.8307C28.8231 23.2542 29.3245 23.583 29.8781 23.7946C30.4317 24.0063 31.0245 24.0958 31.6159 24.057C32.2023 24.0942 32.7899 24.0038 33.3381 23.7921C33.8862 23.5804 34.382 23.2524 34.7913 22.8307C35.2073 23.2523 35.7089 23.5799 36.2621 23.7914C36.8154 24.0029 37.4075 24.0935 37.9987 24.057H47.2774C47.8474 24.057 48.3941 23.831 48.7976 23.4284C49.2011 23.0259 49.4285 22.4797 49.4299 21.9098Z" fill="currentColor" />
    <path d="M4.26834 14.0435C4.11038 14.0435 3.95399 14.0746 3.80806 14.135C3.66213 14.1955 3.52952 14.2841 3.41783 14.3958C3.30614 14.5075 3.21754 14.64 3.15709 14.786C3.09665 14.9319 3.06554 15.0883 3.06554 15.2463V24.974C3.07058 25.485 3.03227 25.9954 2.951 26.4998C2.89185 26.8849 2.75211 27.2532 2.5409 27.5807C2.33457 27.8787 2.0494 28.1135 1.71728 28.2588C1.47091 28.3692 1.21232 28.4499 0.946916 28.4994C0.726183 28.5474 0.523447 28.6567 0.361921 28.8146C0.200395 28.9725 0.0866068 29.1727 0.0335909 29.3923C-0.0194249 29.6119 -0.00952495 29.842 0.062152 30.0563C0.133829 30.2705 0.264373 30.4602 0.438864 30.6037C0.658047 30.7837 0.933025 30.8819 1.21667 30.8815C1.2972 30.8817 1.37757 30.8742 1.45666 30.8591C1.87882 30.7801 2.29115 30.6555 2.68638 30.4874C3.32372 30.2186 3.88526 29.7973 4.32161 29.2605C4.75116 28.7122 5.05537 28.0765 5.21283 27.3979C5.39642 26.6033 5.4841 25.7895 5.474 24.974V15.2474C5.47415 15.0891 5.44306 14.9324 5.3825 14.7861C5.32194 14.6399 5.23311 14.507 5.1211 14.3952C5.00909 14.2833 4.87611 14.1947 4.72977 14.1343C4.58344 14.074 4.42663 14.0431 4.26834 14.0435Z" fill="currentColor" />
    <path d="M114.777 30.8815H69.2317C67.8444 30.8798 66.5144 30.3277 65.5336 29.3466C64.5527 28.3654 64.0012 27.0352 64 25.6478V10.2748C64 9.24008 64.3068 8.2286 64.8817 7.36823C65.4565 6.50785 66.2735 5.83723 67.2294 5.44113C68.1853 5.04504 69.2372 4.94126 70.2521 5.14291C71.267 5.34457 72.1993 5.8426 72.9311 6.57406L85.527 19.1712C85.857 19.4856 86.2954 19.661 86.7513 19.661C87.2071 19.661 87.6455 19.4856 87.9755 19.1712L89.5255 17.6199L80.9551 9.04823C80.2232 8.31674 79.7248 7.3846 79.5228 6.36974C79.3208 5.35488 79.4244 4.30291 79.8204 3.34693C80.2165 2.39096 80.8872 1.57393 81.7477 0.999234C82.6082 0.424539 83.6198 0.118011 84.6546 0.118409H99.3474C100.382 0.118271 101.394 0.425 102.254 0.999794C103.114 1.57459 103.785 2.39161 104.18 3.34753C104.576 4.30345 104.68 5.35532 104.478 6.37006C104.276 7.3848 103.777 8.31681 103.046 9.04823L94.4752 17.6199L96.0264 19.1712C96.3518 19.4947 96.7919 19.6763 97.2507 19.6763C97.7095 19.6763 98.1497 19.4947 98.475 19.1712L111.069 6.57276C111.801 5.8413 112.733 5.34325 113.748 5.14159C114.763 4.93994 115.815 5.04371 116.771 5.43981C117.727 5.83591 118.544 6.50655 119.118 7.36692C119.693 8.2273 120 9.23878 120 10.2735V25.6472C119.999 27.0331 119.448 28.3621 118.47 29.3431C117.491 30.3242 116.163 30.8773 114.777 30.8815ZM69.2599 8.53792C69.0221 8.53916 68.7867 8.58522 68.5659 8.6737C68.2473 8.8018 67.9748 9.02311 67.784 9.30867C67.5932 9.59424 67.4931 9.93075 67.4968 10.2741V25.6478C67.4975 26.1071 67.6802 26.5473 68.0049 26.872C68.3296 27.1967 68.7699 27.3795 69.2291 27.3801H114.774C115.233 27.3793 115.673 27.1964 115.998 26.8717C116.322 26.547 116.505 26.1069 116.505 25.6478V10.2748C116.505 9.93222 116.404 9.59728 116.214 9.31236C116.024 9.02743 115.753 8.80531 115.437 8.67414C115.12 8.54297 114.772 8.50863 114.436 8.57545C114.1 8.64228 113.791 8.80727 113.549 9.04955L100.955 21.648C99.9738 22.6292 98.643 23.1804 97.2553 23.1804C95.8676 23.1804 94.5368 22.6292 93.5556 21.648L92.0043 20.0967L90.453 21.648C89.4712 22.6277 88.1409 23.1779 86.7539 23.1779C85.3669 23.1779 84.0366 22.6277 83.0548 21.648L70.4563 9.04955C70.3022 8.88733 70.1166 8.75827 69.9109 8.6703C69.7052 8.58232 69.4837 8.53728 69.2599 8.53792ZM84.6546 3.61845C84.3129 3.61916 83.9791 3.72091 83.6952 3.9109C83.4112 4.1009 83.1898 4.37065 83.0589 4.6862C82.9279 5.00174 82.8931 5.34897 82.9591 5.6842C83.025 6.01943 83.1886 6.32768 83.4293 6.57013L92.001 15.1418L100.573 6.57013C100.814 6.32788 100.977 6.01974 101.044 5.68452C101.11 5.34931 101.075 5.00201 100.944 4.6864C100.813 4.37078 100.592 4.10095 100.308 3.9109C100.024 3.72086 99.6904 3.61911 99.3487 3.61845H84.6546Z" fill="url(#paint0_linear_185_507)" />
    <path style="mix-blend-mode:multiply" opacity="0.5" d="M92.0034 15.1457L89.5286 17.6205L85.2539 13.3458L87.8304 10.9727L92.0034 15.1457Z" fill="url(#paint1_linear_185_507)" />
    <path style="mix-blend-mode:multiply" opacity="0.5" d="M92.0039 20.096L94.4787 17.6212L95.9992 19.1417L93.4227 21.5148L92.0039 20.096Z" fill="url(#paint2_linear_185_507)" />
    <defs>
        <linearGradient id="paint0_linear_185_507" x1="92" y1="30.8815" x2="92" y2="0.118408" gradientUnits="userSpaceOnUse">
            <stop stop-color="#FDA066" />
            <stop offset="0.995" stop-color="#FD4F42" />
        </linearGradient>
        <linearGradient id="paint1_linear_185_507" x1="92.1722" y1="17.7867" x2="87.4737" y2="12.9489" gradientUnits="userSpaceOnUse">
            <stop stop-color="#1D1D1B" />
            <stop offset="0.995" stop-color="#F5F5F5" stop-opacity="0" />
        </linearGradient>
        <linearGradient id="paint2_linear_185_507" x1="7522.62" y1="-377.622" x2="7519.74" y2="-380.648" gradientUnits="userSpaceOnUse">
            <stop stop-color="#1D1D1B" />
            <stop offset="0.408" stop-color="#333331" stop-opacity="0.894" />
            <stop offset="0.72" stop-color="#7B7B7A" stop-opacity="0.561" />
            <stop offset="1" stop-color="#F5F5F5" stop-opacity="0" />
        </linearGradient>
    </defs>
</svg>
